<svg preserveAspectRatio="none" viewBox="0 0 1366 111" fill="none" xmlns="http://www.w3.org/2000/svg">
<path d="M0 111H1366V81H1196C1175.35 81 1164.75 81.25 1155.48 77.3713C1146.22 73.4926 1138.97 66.1364 1124.48 51.4241L1103.2 29.8259C1088.71 15.1139 1081.47 7.75732 1072.2 3.87868C1062.94 0 1052.61 0 1031.96 0H332.039C311.388 0 301.062 0 291.797 3.87868C282.533 7.75732 275.287 15.1134 260.796 29.8254L239.521 51.4241C225.03 66.1364 217.784 73.4926 208.519 77.3713C199.254 81.25 188.651 81 168 81H0V111Z" fill="white"/>
</svg>
